# Blender v2.78 (sub 0) OBJ File: 'numbers.blend'
# www.blender.org
mtllib 0.mtl
o mesh1333311947
v 0.010000 -0.050000 0.030000
v 0.010000 0.050000 0.030000
v -0.010000 0.050000 0.030000
v -0.010000 -0.050000 0.030000
v -0.010000 0.050000 0.010000
v 0.010000 0.050000 0.010000
v 0.010000 -0.050000 0.010000
v -0.010000 -0.050000 0.010000
v 0.010000 -0.050000 0.010000
v 0.010000 -0.030000 0.010000
v -0.010000 -0.030000 0.010000
v -0.010000 -0.050000 0.010000
v -0.010000 -0.030000 -0.010000
v 0.010000 -0.030000 -0.010000
v 0.010000 -0.050000 -0.010000
v -0.010000 -0.050000 -0.010000
v 0.010000 -0.050000 -0.010000
v 0.010000 0.050000 -0.010000
v -0.010000 0.050000 -0.010000
v -0.010000 -0.050000 -0.010000
v -0.010000 0.050000 -0.030000
v 0.010000 0.050000 -0.030000
v 0.010000 -0.050000 -0.030000
v -0.010000 -0.050000 -0.030000
v 0.010000 0.030000 0.010000
v 0.010000 0.050000 0.010000
v -0.010000 0.050000 0.010000
v -0.010000 0.030000 0.010000
v -0.010000 0.050000 -0.010000
v 0.010000 0.050000 -0.010000
v 0.010000 0.030000 -0.010000
v -0.010000 0.030000 -0.010000
vt 0.1476 0.2191
vt 0.1565 0.2236
vt 0.1574 0.2218
vt 0.1485 0.2173
vt -0.1574 0.2218
vt -0.1565 0.2236
vt -0.1476 0.2191
vt -0.1485 0.2173
vt -0.0565 0.2546
vt -0.0549 0.2557
vt -0.0491 0.2476
vt -0.0507 0.2464
vt 0.0491 0.2476
vt 0.0549 0.2557
vt 0.0565 0.2546
vt 0.0507 0.2464
vt -0.0549 0.1555
vt -0.0542 0.1574
vt -0.0523 0.1567
vt -0.0530 0.1548
vt 0.0523 0.1567
vt 0.0542 0.1574
vt 0.0549 0.1555
vt 0.0530 0.1548
vt 0.1476 0.2191
vt 0.1494 0.2200
vt 0.1503 0.2182
vt 0.1485 0.2173
vt -0.1503 0.2182
vt -0.1494 0.2200
vt -0.1476 0.2191
vt -0.1485 0.2173
vt -0.0502 0.2492
vt -0.0486 0.2504
vt -0.0474 0.2488
vt -0.0491 0.2476
vt 0.0474 0.2488
vt 0.0486 0.2504
vt 0.0502 0.2492
vt 0.0491 0.2476
vt -0.0568 0.1562
vt -0.0561 0.1581
vt -0.0542 0.1574
vt -0.0549 0.1555
vt 0.0542 0.1574
vt 0.0561 0.1581
vt 0.0568 0.1562
vt 0.0549 0.1555
vt 0.1476 0.2191
vt 0.1565 0.2236
vt 0.1574 0.2218
vt 0.1485 0.2173
vt -0.1574 0.2218
vt -0.1565 0.2236
vt -0.1476 0.2191
vt -0.1485 0.2173
vt -0.0532 0.2569
vt -0.0516 0.2581
vt -0.0458 0.2499
vt -0.0474 0.2488
vt 0.0458 0.2499
vt 0.0516 0.2581
vt 0.0532 0.2569
vt 0.0474 0.2488
vt -0.0587 0.1569
vt -0.0580 0.1588
vt -0.0561 0.1581
vt -0.0568 0.1562
vt 0.0561 0.1581
vt 0.0580 0.1588
vt 0.0587 0.1569
vt 0.0568 0.1562
vt 0.1547 0.2227
vt 0.1565 0.2236
vt 0.1574 0.2218
vt 0.1556 0.2209
vt -0.1574 0.2218
vt -0.1565 0.2236
vt -0.1547 0.2227
vt -0.1556 0.2209
vt -0.0549 0.2557
vt -0.0532 0.2569
vt -0.0521 0.2553
vt -0.0537 0.2541
vt 0.0521 0.2553
vt 0.0532 0.2569
vt 0.0549 0.2557
vt 0.0537 0.2541
vt -0.0568 0.1562
vt -0.0561 0.1581
vt -0.0542 0.1574
vt -0.0549 0.1555
vt 0.0542 0.1574
vt 0.0561 0.1581
vt 0.0568 0.1562
vt 0.0549 0.1555
vn 0.0000 -0.0000 1.0000
vn 0.0000 0.0000 -1.0000
vn -1.0000 -0.0000 0.0000
vn 1.0000 -0.0000 0.0000
vn 0.0000 -1.0000 0.0000
vn 0.0000 1.0000 0.0000
usemtl mat8
s 1
f 1/1/1 2/2/1 3/3/1 4/4/1
f 5/5/2 6/6/2 7/7/2 8/8/2
f 3/9/3 5/10/3 8/11/3 4/12/3
f 7/13/4 6/14/4 2/15/4 1/16/4
f 8/17/5 7/18/5 1/19/5 4/20/5
f 2/21/6 6/22/6 5/23/6 3/24/6
f 9/25/1 10/26/1 11/27/1 12/28/1
f 13/29/2 14/30/2 15/31/2 16/32/2
f 11/33/3 13/34/3 16/35/3 12/36/3
f 15/37/4 14/38/4 10/39/4 9/40/4
f 16/41/5 15/42/5 9/43/5 12/44/5
f 10/45/6 14/46/6 13/47/6 11/48/6
f 17/49/1 18/50/1 19/51/1 20/52/1
f 21/53/2 22/54/2 23/55/2 24/56/2
f 19/57/3 21/58/3 24/59/3 20/60/3
f 23/61/4 22/62/4 18/63/4 17/64/4
f 24/65/5 23/66/5 17/67/5 20/68/5
f 18/69/6 22/70/6 21/71/6 19/72/6
f 25/73/1 26/74/1 27/75/1 28/76/1
f 29/77/2 30/78/2 31/79/2 32/80/2
f 27/81/3 29/82/3 32/83/3 28/84/3
f 31/85/4 30/86/4 26/87/4 25/88/4
f 32/89/5 31/90/5 25/91/5 28/92/5
f 26/93/6 30/94/6 29/95/6 27/96/6
