# Blender v2.78 (sub 0) OBJ File: 'numbers.blend'
# www.blender.org
mtllib 2.mtl
o mesh1807333798
v 0.010000 -0.006000 0.030000
v 0.010000 0.014000 0.030000
v -0.010000 0.014000 0.030000
v -0.010000 -0.006000 0.030000
v -0.010000 0.014000 -0.010000
v 0.010000 0.014000 -0.010000
v 0.010000 -0.006000 -0.010000
v -0.010000 -0.006000 -0.010000
v 0.010000 0.034000 0.030000
v 0.010000 0.054000 0.030000
v -0.010000 0.054000 0.030000
v -0.010000 0.034000 0.030000
v -0.010000 0.054000 -0.030000
v 0.010000 0.054000 -0.030000
v 0.010000 0.034000 -0.030000
v -0.010000 0.034000 -0.030000
v 0.010000 -0.006000 -0.010000
v 0.010000 0.034000 -0.010000
v -0.010000 0.034000 -0.010000
v -0.010000 -0.006000 -0.010000
v -0.010000 0.034000 -0.030000
v 0.010000 0.034000 -0.030000
v 0.010000 -0.006000 -0.030000
v -0.010000 -0.006000 -0.030000
v 0.010000 -0.046000 0.030000
v 0.010000 -0.006000 0.030000
v -0.010000 -0.006000 0.030000
v -0.010000 -0.046000 0.030000
v -0.010000 -0.006000 0.010000
v 0.010000 -0.006000 0.010000
v 0.010000 -0.046000 0.010000
v -0.010000 -0.046000 0.010000
v 0.010000 -0.046000 0.010000
v 0.010000 -0.026000 0.010000
v -0.010000 -0.026000 0.010000
v -0.010000 -0.046000 0.010000
v -0.010000 -0.026000 -0.030000
v 0.010000 -0.026000 -0.030000
v 0.010000 -0.046000 -0.030000
v -0.010000 -0.046000 -0.030000
vt 0.1512 0.2209
vt 0.1529 0.2218
vt 0.1538 0.2200
vt 0.1521 0.2191
vt -0.1538 0.2200
vt -0.1529 0.2218
vt -0.1512 0.2209
vt -0.1521 0.2191
vt -0.1063 0.2141
vt -0.1030 0.2165
vt -0.1018 0.2148
vt -0.1051 0.2125
vt 0.1018 0.2148
vt 0.1030 0.2165
vt 0.1063 0.2141
vt 0.1051 0.2125
vt 0.0035 0.1347
vt 0.0042 0.1366
vt 0.0079 0.1352
vt 0.0073 0.1333
vt -0.0079 0.1352
vt -0.0042 0.1366
vt -0.0035 0.1347
vt -0.0073 0.1333
vt 0.1547 0.2227
vt 0.1565 0.2236
vt 0.1574 0.2218
vt 0.1556 0.2209
vt -0.1574 0.2218
vt -0.1565 0.2236
vt -0.1547 0.2227
vt -0.1556 0.2209
vt -0.1086 0.2174
vt -0.1037 0.2209
vt -0.1025 0.2192
vt -0.1074 0.2158
vt 0.1025 0.2192
vt 0.1037 0.2209
vt 0.1086 0.2174
vt 0.1074 0.2158
vt 0.0016 0.1353
vt 0.0023 0.1372
vt 0.0079 0.1352
vt 0.0073 0.1333
vt -0.0079 0.1352
vt -0.0023 0.1372
vt -0.0016 0.1353
vt -0.0073 0.1333
vt 0.1512 0.2209
vt 0.1547 0.2227
vt 0.1556 0.2209
vt 0.1521 0.2191
vt -0.1556 0.2209
vt -0.1547 0.2227
vt -0.1512 0.2209
vt -0.1521 0.2191
vt -0.1042 0.2181
vt -0.1025 0.2192
vt -0.1002 0.2160
vt -0.1018 0.2148
vt 0.1002 0.2160
vt 0.1025 0.2192
vt 0.1042 0.2181
vt 0.1018 0.2148
vt 0.0016 0.1353
vt 0.0023 0.1372
vt 0.0042 0.1366
vt 0.0035 0.1347
vt -0.0042 0.1366
vt -0.0023 0.1372
vt -0.0016 0.1353
vt -0.0035 0.1347
vt 0.1476 0.2191
vt 0.1512 0.2209
vt 0.1521 0.2191
vt 0.1485 0.2173
vt -0.1521 0.2191
vt -0.1512 0.2209
vt -0.1476 0.2191
vt -0.1485 0.2173
vt -0.1051 0.2125
vt -0.1035 0.2137
vt -0.1011 0.2104
vt -0.1028 0.2092
vt 0.1011 0.2104
vt 0.1035 0.2137
vt 0.1051 0.2125
vt 0.1028 0.2092
vt 0.0054 0.1340
vt 0.0061 0.1359
vt 0.0079 0.1352
vt 0.0073 0.1333
vt -0.0079 0.1352
vt -0.0061 0.1359
vt -0.0054 0.1340
vt -0.0073 0.1333
vt 0.1476 0.2191
vt 0.1494 0.2200
vt 0.1503 0.2182
vt 0.1485 0.2173
vt -0.1503 0.2182
vt -0.1494 0.2200
vt -0.1476 0.2191
vt -0.1485 0.2173
vt -0.1023 0.2120
vt -0.0990 0.2144
vt -0.0979 0.2127
vt -0.1011 0.2104
vt 0.0979 0.2127
vt 0.0990 0.2144
vt 0.1023 0.2120
vt 0.1011 0.2104
vt 0.0016 0.1353
vt 0.0023 0.1372
vt 0.0061 0.1359
vt 0.0054 0.1340
vt -0.0061 0.1359
vt -0.0023 0.1372
vt -0.0016 0.1353
vt -0.0054 0.1340
vn 0.0000 -0.0000 1.0000
vn 0.0000 0.0000 -1.0000
vn -1.0000 0.0000 0.0000
vn 1.0000 0.0000 0.0000
vn 0.0000 -1.0000 -0.0000
vn 0.0000 1.0000 0.0000
usemtl mat8
s 1
f 1/1/1 2/2/1 3/3/1 4/4/1
f 5/5/2 6/6/2 7/7/2 8/8/2
f 3/9/3 5/10/3 8/11/3 4/12/3
f 7/13/4 6/14/4 2/15/4 1/16/4
f 8/17/5 7/18/5 1/19/5 4/20/5
f 2/21/6 6/22/6 5/23/6 3/24/6
f 9/25/1 10/26/1 11/27/1 12/28/1
f 13/29/2 14/30/2 15/31/2 16/32/2
f 11/33/3 13/34/3 16/35/3 12/36/3
f 15/37/4 14/38/4 10/39/4 9/40/4
f 16/41/5 15/42/5 9/43/5 12/44/5
f 10/45/6 14/46/6 13/47/6 11/48/6
f 17/49/1 18/50/1 19/51/1 20/52/1
f 21/53/2 22/54/2 23/55/2 24/56/2
f 19/57/3 21/58/3 24/59/3 20/60/3
f 23/61/4 22/62/4 18/63/4 17/64/4
f 24/65/5 23/66/5 17/67/5 20/68/5
f 18/69/6 22/70/6 21/71/6 19/72/6
f 25/73/1 26/74/1 27/75/1 28/76/1
f 29/77/2 30/78/2 31/79/2 32/80/2
f 27/81/3 29/82/3 32/83/3 28/84/3
f 31/85/4 30/86/4 26/87/4 25/88/4
f 32/89/5 31/90/5 25/91/5 28/92/5
f 26/93/6 30/94/6 29/95/6 27/96/6
f 33/97/1 34/98/1 35/99/1 36/100/1
f 37/101/2 38/102/2 39/103/2 40/104/2
f 35/105/3 37/106/3 40/107/3 36/108/3
f 39/109/4 38/110/4 34/111/4 33/112/4
f 40/113/5 39/114/5 33/115/5 36/116/5
f 34/117/6 38/118/6 37/119/6 35/120/6
