# Blender v2.78 (sub 0) OBJ File: 'numbers.blend'
# www.blender.org
mtllib 4.mtl
o mesh1506317285
v 0.010000 -0.016667 0.030000
v 0.010000 0.043333 0.030000
v -0.010000 0.043333 0.030000
v -0.010000 -0.016667 0.030000
v -0.010000 0.043333 0.010000
v 0.010000 0.043333 0.010000
v 0.010000 -0.016667 0.010000
v -0.010000 -0.016667 0.010000
v 0.010000 -0.016667 0.010000
v 0.010000 0.003333 0.010000
v -0.010000 0.003333 0.010000
v -0.010000 -0.016667 0.010000
v -0.010000 0.003333 -0.010000
v 0.010000 0.003333 -0.010000
v 0.010000 -0.016667 -0.010000
v -0.010000 -0.016667 -0.010000
v 0.010000 -0.056667 -0.010000
v 0.010000 0.043333 -0.010000
v -0.010000 0.043333 -0.010000
v -0.010000 -0.056667 -0.010000
v -0.010000 0.043333 -0.030000
v 0.010000 0.043333 -0.030000
v 0.010000 -0.056667 -0.030000
v -0.010000 -0.056667 -0.030000
vt 0.1512 0.2209
vt 0.1565 0.2236
vt 0.1574 0.2218
vt 0.1521 0.2191
vt -0.1574 0.2218
vt -0.1565 0.2236
vt -0.1512 0.2209
vt -0.1521 0.2191
vt -0.0956 0.2267
vt -0.0939 0.2278
vt -0.0904 0.2230
vt -0.0921 0.2218
vt 0.0904 0.2230
vt 0.0939 0.2278
vt 0.0956 0.2267
vt 0.0921 0.2218
vt -0.0097 0.1394
vt -0.0090 0.1413
vt -0.0071 0.1406
vt -0.0078 0.1387
vt 0.0071 0.1406
vt 0.0090 0.1413
vt 0.0097 0.1394
vt 0.0078 0.1387
vt 0.1512 0.2209
vt 0.1529 0.2218
vt 0.1538 0.2200
vt 0.1521 0.2191
vt -0.1538 0.2200
vt -0.1529 0.2218
vt -0.1512 0.2209
vt -0.1521 0.2191
vt -0.0916 0.2246
vt -0.0900 0.2258
vt -0.0888 0.2241
vt -0.0904 0.2230
vt 0.0888 0.2241
vt 0.0900 0.2258
vt 0.0916 0.2246
vt 0.0904 0.2230
vt -0.0116 0.1401
vt -0.0109 0.1419
vt -0.0090 0.1413
vt -0.0097 0.1394
vt 0.0090 0.1413
vt 0.0109 0.1419
vt 0.0116 0.1401
vt 0.0097 0.1394
vt 0.1476 0.2191
vt 0.1565 0.2236
vt 0.1574 0.2218
vt 0.1485 0.2173
vt -0.1574 0.2218
vt -0.1565 0.2236
vt -0.1476 0.2191
vt -0.1485 0.2173
vt -0.0923 0.2290
vt -0.0907 0.2302
vt -0.0849 0.2220
vt -0.0865 0.2209
vt 0.0849 0.2220
vt 0.0907 0.2302
vt 0.0923 0.2290
vt 0.0865 0.2209
vt -0.0135 0.1407
vt -0.0128 0.1426
vt -0.0109 0.1419
vt -0.0116 0.1401
vt 0.0109 0.1419
vt 0.0128 0.1426
vt 0.0135 0.1407
vt 0.0116 0.1401
vn 0.0000 -0.0000 1.0000
vn 0.0000 0.0000 -1.0000
vn -1.0000 -0.0000 0.0000
vn 1.0000 -0.0000 0.0000
vn 0.0000 -1.0000 -0.0000
vn 0.0000 1.0000 0.0000
usemtl mat8
s 1
f 1/1/1 2/2/1 3/3/1 4/4/1
f 5/5/2 6/6/2 7/7/2 8/8/2
f 3/9/3 5/10/3 8/11/3 4/12/3
f 7/13/4 6/14/4 2/15/4 1/16/4
f 8/17/5 7/18/5 1/19/5 4/20/5
f 2/21/6 6/22/6 5/23/6 3/24/6
f 9/25/1 10/26/1 11/27/1 12/28/1
f 13/29/2 14/30/2 15/31/2 16/32/2
f 11/33/3 13/34/3 16/35/3 12/36/3
f 15/37/4 14/38/4 10/39/4 9/40/4
f 16/41/5 15/42/5 9/43/5 12/44/5
f 10/45/6 14/46/6 13/47/6 11/48/6
f 17/49/1 18/50/1 19/51/1 20/52/1
f 21/53/2 22/54/2 23/55/2 24/56/2
f 19/57/3 21/58/3 24/59/3 20/60/3
f 23/61/4 22/62/4 18/63/4 17/64/4
f 24/65/5 23/66/5 17/67/5 20/68/5
f 18/69/6 22/70/6 21/71/6 19/72/6
